<?xml version="1.0" encoding="UTF-8"?>
<svg width="223px" height="50px" viewBox="0 0 223 50" version="1.1" xmlns="http://www.w3.org/2000/svg" xmlns:xlink="http://www.w3.org/1999/xlink">
    <title>nature communications</title>
    <g id="nature-communications" stroke="none" stroke-width="1" fill="none" fill-rule="evenodd">
        <path d="M5.6,3.7 L5.6,3.7 L5.7,7.4 L5.8,7.4 C6.6,5.3 8.4,3.6 11.1,3.6 C14.6,3.6 15.7,5.4 15.7,8.7 L15.7,15.4 C15.7,17.4 15.8,19.5 16.3,21.1 L10.6,21.1 C11.1,19.6 11.1,17.8 11.1,15.6 L11.1,9.3 C11.1,7.7 10.5,7 8.8,7 C7.5,7 6.5,7.3 5.8,8 L5.8,15.6 C5.8,17.8 5.9,19.6 6.3,21.1 L0.7,21.1 C1.2,19.5 1.3,17.4 1.3,15.4 L1.3,9.3 C1.3,7.6 0.7,6.1 0,5.3 L5.6,3.7 Z M24.4,3.6 C28.8,3.6 30.5,5.3 30.5,8.9 L30.5,16.5 C30.5,17.9 31,18.3 32.1,18.3 C32.3,18.3 32.8,18.2 33,18 C32.9,18.5 32.8,18.8 32.7,19.1 C32.2,20.5 31.3,21.4 29.4,21.4 C27.2,21.4 26.1,19.9 26,18.3 L26,18.3 C25.3,20.5 23.8,21.4 21.6,21.4 C18.8,21.4 17.1,19.8 17.1,17.2 C17.1,14.5 19.6,13.3 22.1,12.3 C24.5,11.3 25.9,10.6 25.9,8.9 L25.9,8.6 C25.9,6.7 25.3,5.7 23.5,5.7 C22.4,5.7 21.9,6.2 21.7,7.3 C21.4,8.9 20.7,9.5 19.6,9.5 C18.6,9.5 17.7,8.8 17.7,7.6 C17.7,5.3 20.9,3.6 24.4,3.6 Z M25.9,17.8 L25.9,11.6 C25.6,12.1 25.1,12.4 23.8,13 C22.2,13.8 21.6,14.6 21.6,16.5 C21.6,18 22.4,18.9 23.8,18.9 C25.1,19 25.5,18.5 25.9,17.8 Z M42.8,19.3 C42.2,20.7 40.7,21.5 38.7,21.5 C35.2,21.5 33.8,19.7 33.8,16.5 L33.8,6.4 L32.1,6.4 L32.1,6.3 L38.3,0 L38.4,0 L38.4,4 L42.8,4 L42.4,6.4 L38.5,6.4 L38.5,15.8 C38.5,17.6 39.3,18.3 40.9,18.3 C42.1,18.3 42.8,18.1 43.3,17.8 C43.1,18.4 43.1,18.8 42.8,19.3 Z M48.8,3.9 L48.8,15.7 C48.8,17.5 49.5,18.5 51.2,18.5 C52.7,18.5 53.7,18 54.4,17.2 L54.4,9.2 C54.4,7.5 54.2,6 53.7,4.5 L59,4 L59,16 C59,18.7 59.3,19.9 59.7,21.1 L54.6,21.1 L54.6,17.7 L54.5,17.7 C53.8,19.9 52.3,21.5 49.4,21.5 C45.7,21.5 44.3,19.3 44.3,15.9 L44.3,9.2 C44.3,7.5 44.1,6 43.6,4.5 L48.8,3.9 Z M66.2,8 C67,4.8 68.4,3.6 70.3,3.6 C72.1,3.6 73,4.6 73,6 C73,7.3 72.3,8.4 70.9,8.4 C70.1,8.4 69.6,8.1 69.3,7.7 C68.9,7.4 68.6,7 68.3,7 C67.4,7 66.4,8.5 66.4,11.1 L66.4,15.3 C66.4,17.4 66.6,19.5 67,21.1 L61.3,21.1 C61.8,19.5 61.9,17.4 61.9,15.4 L61.9,9.3 C61.9,7.6 61.3,6.1 60.6,5.3 L66,3.7 L66.1,3.7 L66.2,8 L66.2,8 Z M80.5,21.5 C76.1,21.5 72.5,18.6 72.5,13 C72.5,7.3 75.9,3.6 80.6,3.6 C85,3.6 87.1,6.4 87.1,11.7 L77,11.7 L77,12.2 C77,16.5 79.2,18.1 82.2,18.1 C84.9,18.1 86.2,17 86.9,16.2 L87,16.5 C86.3,19.1 84.3,21.5 80.5,21.5 Z M77.1,10.5 L82.8,10 C82.7,7.3 82.3,5.7 80.4,5.7 C78.5,5.7 77.3,7.2 77.1,10.5 Z M8.1,50 C3.5,50 0.4,46.8 0.4,41.4 C0.4,35.4 4.5,32.1 8.7,32.1 C12.6,32.1 14.3,33.8 14.3,35.6 C14.3,36.9 13.5,37.7 12.2,37.7 C11,37.7 10.5,36.9 10.2,35.5 C10,34.3 9.6,34.1 8.5,34.1 C6.3,34.1 4.9,36.4 4.9,40.3 C4.9,44.7 6.8,46.6 9.8,46.6 C11.7,46.6 13.4,46 14.4,45 L14.5,45.3 C13.9,47.3 12,50 8.1,50 Z M31.9,41 C31.9,46.5 27.9,50 23.6,50 C19.3,50 15.1,46.7 15.1,41.1 C15.1,35.6 19.1,32.1 23.4,32.1 C27.7,32.1 31.9,35.4 31.9,41 Z M26.9,41.1 C26.9,35.5 25.6,34.2 23.4,34.2 C21.3,34.2 20.1,35.7 20.1,41 C20.1,46.6 21.4,47.9 23.6,47.9 C25.7,47.9 26.9,46.4 26.9,41.1 Z M38.2,32.2 L38.2,32.2 L38.3,35.9 L38.4,35.9 C39.2,33.8 40.8,32.1 43.6,32.1 C46.7,32.1 47.7,33.5 48,35.9 L48,35.9 C48.8,33.8 50.4,32.1 53.1,32.1 C56.6,32.1 57.6,33.9 57.6,37.2 L57.6,43.9 C57.6,45.9 57.7,48 58.2,49.6 L52.5,49.6 C53,48.1 53,46.3 53,44.1 L53,37.7 C53,36.1 52.5,35.4 50.8,35.4 C49.5,35.4 48.7,35.7 48,36.4 L48,43.8 C48,45.8 48.1,47.9 48.6,49.5 L42.9,49.5 C43.4,48 43.4,46.2 43.4,44 L43.4,37.6 C43.4,36 42.9,35.3 41.2,35.3 C39.9,35.3 39.2,35.5 38.4,36.3 L38.4,43.9 C38.4,46.1 38.5,47.9 38.9,49.4 L33.2,49.4 C33.7,47.8 33.8,45.7 33.8,43.7 L33.8,37.5 C33.8,35.8 33.2,34.3 32.5,33.5 L38.2,32.2 Z M64.3,32.2 L64.3,32.2 L64.4,35.9 L64.5,35.9 C65.3,33.8 66.9,32.1 69.7,32.1 C72.8,32.1 73.8,33.5 74.1,35.9 L74.1,35.9 C74.9,33.8 76.5,32.1 79.2,32.1 C82.7,32.1 83.7,33.9 83.7,37.2 L83.7,43.9 C83.7,45.9 83.8,48 84.3,49.6 L78.6,49.6 C79.1,48.1 79.1,46.3 79.1,44.1 L79.1,37.7 C79.1,36.1 78.6,35.4 76.9,35.4 C75.6,35.4 74.8,35.7 74.1,36.4 L74.1,43.8 C74.1,45.8 74.2,47.9 74.7,49.5 L69,49.5 C69.5,48 69.5,46.2 69.5,44 L69.5,37.6 C69.5,36 69,35.3 67.3,35.3 C66,35.3 65.3,35.5 64.5,36.3 L64.5,43.9 C64.5,46.1 64.6,47.9 65,49.4 L59.3,49.4 C59.8,47.8 59.9,45.7 59.9,43.7 L59.9,37.5 C59.9,35.8 59.3,34.3 58.6,33.5 L64.3,32.2 Z M90.5,32.4 L90.5,44.2 C90.5,46 91.2,47 92.9,47 C94.4,47 95.4,46.5 96.1,45.7 L96.1,37.7 C96.1,36 95.9,34.5 95.4,33 L100.7,32.5 L100.7,44.6 C100.7,47.3 101,48.5 101.4,49.7 L96.3,49.7 L96.3,46.3 L96.2,46.3 C95.4,48.4 94,50 91,50 C87.3,50 85.9,47.8 85.9,44.4 L85.9,37.7 C85.9,36 85.7,34.5 85.2,33 L90.5,32.4 Z M107.8,32.2 L107.8,32.2 L107.9,35.9 L108,35.9 C108.8,33.8 110.6,32.1 113.3,32.1 C116.8,32.1 117.9,33.9 117.9,37.2 L117.9,43.9 C117.9,45.9 118,48 118.5,49.6 L112.8,49.6 C113.3,48.1 113.3,46.3 113.3,44.1 L113.3,37.7 C113.3,36.1 112.7,35.4 111,35.4 C109.7,35.4 108.7,35.7 108,36.4 L108,44 C108,46.2 108.1,48 108.5,49.5 L102.8,49.5 C103.3,47.9 103.4,45.8 103.4,43.8 L103.4,37.6 C103.4,35.9 102.8,34.4 102.1,33.6 L107.8,32.2 Z M125,43.9 C125,45.9 125.1,48 125.6,49.6 L119.7,49.6 C120.2,48 120.3,45.9 120.3,43.9 L120.3,37.7 C120.3,36 119.7,34.5 119,33.7 L124.9,32.1 L125,32.1 L124.9,36.4 L124.9,43.9 L125,43.9 Z M119.8,28.4 C119.8,26.9 120.9,25.7 122.6,25.7 C124.2,25.7 125.4,26.9 125.4,28.4 C125.4,29.9 124.3,31.1 122.6,31.1 C120.9,31.1 119.8,29.9 119.8,28.4 Z M134.7,50 C130.1,50 127,46.8 127,41.4 C127,35.4 131.1,32.1 135.3,32.1 C139.2,32.1 140.9,33.8 140.9,35.6 C140.9,36.9 140.1,37.7 138.8,37.7 C137.6,37.7 137.1,36.9 136.8,35.5 C136.6,34.3 136.2,34.1 135.1,34.1 C132.9,34.1 131.5,36.4 131.5,40.3 C131.5,44.7 133.4,46.6 136.4,46.6 C138.3,46.6 140,46 141,45 L141.1,45.3 C140.5,47.3 138.6,50 134.7,50 Z M148.8,32.1 C153.2,32.1 154.9,33.8 154.9,37.4 L154.9,45 C154.9,46.4 155.4,46.8 156.5,46.8 C156.7,46.8 157.2,46.7 157.4,46.5 C157.3,47 157.2,47.3 157.1,47.6 C156.6,49 155.7,49.9 153.8,49.9 C151.6,49.9 150.5,48.4 150.4,46.8 L150.3,46.8 C149.6,49 148.1,49.9 145.9,49.9 C143.1,49.9 141.4,48.3 141.4,45.7 C141.4,43 143.9,41.8 146.4,40.8 C148.8,39.8 150.2,39.1 150.2,37.4 L150.2,37.1 C150.2,35.2 149.6,34.2 147.8,34.2 C146.7,34.2 146.2,34.7 146,35.8 C145.7,37.4 145,38 143.9,38 C142.9,38 142,37.3 142,36.1 C142.1,33.8 145.4,32.1 148.8,32.1 Z M150.3,46.3 L150.3,40.1 C150,40.6 149.5,40.9 148.2,41.5 C146.6,42.3 146,43.1 146,45 C146,46.5 146.8,47.4 148.2,47.4 C149.5,47.5 150,47 150.3,46.3 Z M167.3,47.8 C166.7,49.2 165.2,50 163.2,50 C159.7,50 158.3,48.2 158.3,45 L158.3,34.9 L156.6,34.9 L156.6,34.8 L162.7,28.5 L162.8,28.5 L162.8,32.5 L167.2,32.5 L166.8,34.9 L162.9,34.9 L162.9,44.3 C162.9,46.1 163.7,46.8 165.3,46.8 C166.5,46.8 167.2,46.6 167.7,46.3 C167.6,46.9 167.5,47.2 167.3,47.8 Z M173.5,43.9 C173.5,45.9 173.6,48 174.1,49.6 L168.2,49.6 C168.7,48 168.8,45.9 168.8,43.9 L168.8,37.7 C168.8,36 168.2,34.5 167.5,33.7 L173.4,32.1 L173.5,32.1 L173.4,36.4 L173.4,43.9 L173.5,43.9 Z M168.3,28.4 C168.3,26.9 169.4,25.7 171.1,25.7 C172.7,25.7 173.9,26.9 173.9,28.4 C173.9,29.9 172.8,31.1 171.1,31.1 C169.5,31.1 168.3,29.9 168.3,28.4 Z M192.3,41 C192.3,46.5 188.3,50 184,50 C179.7,50 175.5,46.7 175.5,41.1 C175.5,35.6 179.5,32.1 183.8,32.1 C188.1,32.1 192.3,35.4 192.3,41 Z M187.3,41.1 C187.3,35.5 186,34.2 183.8,34.2 C181.7,34.2 180.5,35.7 180.5,41 C180.5,46.6 181.8,47.9 184,47.9 C186.1,47.9 187.3,46.4 187.3,41.1 Z M198.5,32.2 L198.5,32.2 L198.6,35.9 L198.7,35.9 C199.5,33.8 201.3,32.1 204,32.1 C207.5,32.1 208.6,33.9 208.6,37.2 L208.6,43.9 C208.6,45.9 208.7,48 209.2,49.6 L203.5,49.6 C204,48.1 204,46.3 204,44.1 L204,37.7 C204,36.1 203.4,35.4 201.7,35.4 C200.4,35.4 199.4,35.7 198.7,36.4 L198.7,44 C198.7,46.2 198.8,48 199.2,49.5 L193.5,49.5 C194,47.9 194.1,45.8 194.1,43.8 L194.1,37.6 C194.1,35.9 193.5,34.4 192.8,33.6 L198.5,32.2 Z M220.9,32.9 L221.1,36.5 L221,36.5 C219.7,35.1 218.5,34.1 216.4,34.1 C215,34.1 214.2,34.6 214.2,35.8 C214.2,37 214.8,37.5 217.6,38.7 C220.5,39.9 222.3,41.3 222.3,44.1 C222.3,47 220.7,49.9 215.9,49.9 C213.9,49.9 211.9,49.5 210.5,48.7 L210.3,44.4 L210.5,44.4 C211.9,46.1 213.8,47.9 215.9,47.9 C218,47.9 218.5,47.1 218.5,45.8 C218.5,44.3 217.7,43.9 215.1,42.7 C212.3,41.5 210.4,40.2 210.4,37.3 C210.4,34 213,32 216.3,32 C218.5,32.1 219.8,32.5 220.9,32.9 Z" id="Shape" fill="#000000" fill-rule="nonzero"></path>
    </g>
</svg>