<?xml version="1.0" encoding="utf-8"?>
<!-- Generator: Adobe Illustrator 19.1.0, SVG Export Plug-In . SVG Version: 6.00 Build 0)  -->
<svg version="1.1" id="Layer_1" xmlns="http://www.w3.org/2000/svg" xmlns:xlink="http://www.w3.org/1999/xlink" x="0px" y="0px"
	 viewBox="0 38.9 300 44.3" style="enable-background:new 0 38.9 300 44.3;" xml:space="preserve">
<style type="text/css">
	.st0{fill-rule:evenodd;clip-rule:evenodd;fill:#1D1D1B;}
</style>
<path class="st0" d="M300,48.3C300,48.3,300,48.3,300,48.3L300,48.3C300,48.3,300,48.3,300,48.3 M295.1,48.3L295.1,48.3
	C295.2,48.3,295.1,48.3,295.1,48.3C295.2,48.3,295.1,48.3,295.1,48.3z M287,48.3C287,48.3,287,48.3,287,48.3L287,48.3L287,48.3z
	 M282.2,48.3L282.2,48.3L282.2,48.3C282.2,48.3,282.2,48.3,282.2,48.3L282.2,48.3z M282.2,48.4C282.2,48.4,282.2,48.4,282.2,48.4
	L282.2,48.4C282.2,48.3,282.2,48.3,282.2,48.4l4.8-0.1c0,0,0,0,0.1,0l0,0c0,0,0,0.1,0,0.1v14c0,1.2,0.4,2.2,1.1,3
	c0.8,0.8,1.7,1.2,2.9,1.2c1.2,0,2.1-0.4,2.9-1.2c0.8-0.8,1.2-1.8,1.2-2.9v-14c0-0.1,0-0.1,0-0.1l0,0c0,0,0,0,0.1,0h4.7
	c0,0,0.1,0,0.1,0l0,0c0,0,0,0,0,0.1v25.7c0,2.9-0.8,5.1-2.4,6.8c-1.6,1.6-3.7,2.4-6.6,2.4c-2.2,0-4.1-0.5-5.5-1.6
	c-0.3-0.2-1-0.8-1.2-1.1c-0.3-0.3-0.7-0.9-0.9-1.3c-0.2-0.3-0.4-0.8-0.6-1.1c-0.1-0.3-0.2-0.5-0.2-0.6c0,0,0,0,0.1,0l4.3-2.2l0.1,0
	l0.3,0.7c0.5,0.8,1,1.5,1.5,1.9c0.6,0.5,1.3,0.7,2.2,0.7c1.1,0,2.1-0.4,2.9-1.2c0.8-0.8,1.2-1.8,1.2-2.9v-3.2c0-0.4-0.2-0.9-0.8-0.9
	c-0.4,0-0.8,0.2-1.4,0.4c-0.4,0.2-1.1,0.3-1.9,0.3c-1.4,0-2.6-0.2-3.7-0.6c-1.1-0.4-2-1-2.8-1.8c-0.8-0.8-1.4-1.7-1.8-2.7
	c-0.4-1.1-0.6-2.3-0.6-3.6V48.4z M276,48.3C276,48.3,276,48.3,276,48.3L276,48.3L276,48.3L276,48.3z M273.3,76.3v-1
	c0-0.5-0.2-1-0.5-1.4c-0.4-0.4-0.8-0.5-1.4-0.5H265c-0.5,0-1,0.2-1.4,0.5c-0.4,0.4-0.5,0.8-0.5,1.4v1c0,0.5,0.2,1,0.5,1.4
	c0.4,0.4,0.8,0.5,1.4,0.5h6.5c0.5,0,1-0.2,1.3-0.6C273.2,77.2,273.3,76.8,273.3,76.3z M271.2,57.5V57c0-1.1-0.4-2.1-1.1-2.9
	c-0.8-0.8-1.7-1.2-2.9-1.2c-1.2,0-2.2,0.4-2.9,1.2c-0.8,0.8-1.1,1.8-1.1,2.9v0.5c0,1.1,0.4,2.1,1.1,2.9c0.8,0.8,1.8,1.2,2.9,1.2
	c1.1,0,2.1-0.4,2.9-1.2C270.8,59.6,271.2,58.6,271.2,57.5z M258.2,57c0-1.2,0.2-2.4,0.7-3.4c0.4-1.1,1.1-2,1.8-2.8
	c0.8-0.8,1.7-1.4,2.7-1.8c1-0.4,2.2-0.7,3.4-0.7c1.1,0,1.9,0.2,2.5,0.5c0.7,0.3,1.2,0.6,1.6,0.6c0.3,0,0.5-0.2,0.6-0.5
	c0-0.1,0.1-0.3,0.1-0.4c0-0.1,0-0.1,0-0.1c0,0,0,0,0.1,0h4.3c0,0,0.1,0,0.1,0l0,0c0,0,0,0,0,0.1v9c0,1.3-0.2,2.5-0.7,3.6
	c-0.4,1.1-1.1,2-1.9,2.7c-0.8,0.7-1.8,1.3-3,1.8c-1.2,0.4-2.5,0.6-4,0.6h-0.8l-0.3,0.1c-0.3,0.3-0.5,0.7-0.5,1.1
	c0,0.4,0.2,0.8,0.5,1.2l0.3,0.2h5.6c1,0,1.9,0.2,2.8,0.5c0.8,0.3,1.5,0.8,2.1,1.4c0.6,0.6,1.1,1.3,1.4,2.1c0.3,0.8,0.5,1.7,0.5,2.6
	v1c0,0.9-0.2,1.8-0.5,2.6c-0.3,0.8-0.8,1.5-1.4,2.1c-0.6,0.6-1.3,1-2.1,1.4c-0.8,0.3-1.8,0.5-2.8,0.5H265c-1,0-1.9-0.2-2.8-0.5
	c-0.8-0.3-1.5-0.8-2.1-1.4c-0.6-0.6-1.1-1.3-1.4-2.1c-0.3-0.8-0.5-1.7-0.5-2.6v-1c0-1,0.2-1.7,0.5-2.2c0.3-0.5,0.9-1.3,1.3-1.8
	l0.6-0.6c0.2-0.2,0.3-0.5,0.3-0.8c0-0.1,0-0.3-0.1-0.5c-0.1-0.2-0.1-0.4-0.2-0.6c-0.1-0.3-0.2-0.8-0.2-1.5c0-0.7,0.1-1.3,0.3-1.7
	c0.1-0.2,0.2-0.4,0.3-0.7c0.1-0.2,0.1-0.4,0.1-0.6c0-0.2-0.1-0.5-0.2-0.6l-0.9-1.2c-0.3-0.4-0.7-1-0.9-1.4c-0.2-0.4-0.5-1.2-0.6-1.7
	c-0.1-0.5-0.2-1.6-0.2-2.2V57z M248.3,62.9v-6.4c0-1.1-0.4-2.1-1.2-2.9c-0.8-0.8-1.7-1.2-2.9-1.2c-1.2,0-2.2,0.4-3,1.2
	c-0.8,0.8-1.1,1.8-1.1,2.9v6.4c0,1.1,0.4,2.1,1.1,2.9c0.8,0.8,1.8,1.2,3,1.2c1.1,0,2.1-0.4,2.9-1.2
	C247.9,65.1,248.3,64.1,248.3,62.9z M253.2,62.9c0,1.3-0.2,2.5-0.6,3.6c-0.4,1.1-1,2-1.8,2.8c-0.8,0.8-1.7,1.3-2.8,1.8
	c-1.1,0.4-2.3,0.6-3.7,0.6c-1.4,0-2.6-0.2-3.7-0.6c-1.1-0.4-2-1-2.8-1.8c-0.8-0.8-1.4-1.7-1.8-2.7c-0.4-1.1-0.6-2.3-0.6-3.6v-6.4
	c0-1.3,0.2-2.5,0.6-3.6c0.4-1.1,1-2,1.8-2.7c0.8-0.7,1.7-1.3,2.8-1.8c1.1-0.4,2.3-0.6,3.7-0.6c1.4,0,2.6,0.2,3.7,0.6
	c1.1,0.4,2,1,2.8,1.8c0.8,0.7,1.4,1.7,1.8,2.7c0.4,1.1,0.6,2.3,0.6,3.6V62.9z M229.5,39.4C229.5,39.4,229.5,39.4,229.5,39.4
	L229.5,39.4C229.5,39.4,229.5,39.4,229.5,39.4z M229.5,71.1C229.5,71.1,229.5,71.1,229.5,71.1L229.5,71.1
	C229.5,71.2,229.5,71.1,229.5,71.1z M224.7,71.1C224.7,71.1,224.7,71.1,224.7,71.1C224.7,71.1,224.7,71.1,224.7,71.1L224.7,71.1
	L224.7,71.1z M224.7,39.4L224.7,39.4C224.7,39.4,224.7,39.4,224.7,39.4C224.7,39.4,224.7,39.4,224.7,39.4z M224.7,39.5
	C224.7,39.5,224.7,39.5,224.7,39.5L224.7,39.5C224.7,39.4,224.7,39.4,224.7,39.5l4.8-0.1c0,0,0.1,0,0.1,0l0,0c0,0,0,0,0,0.1V71
	c0,0.1,0,0.1,0,0.1l0,0c0,0,0,0-0.1,0h-4.7c0,0-0.1,0-0.1,0l0,0c0,0,0,0,0-0.1V39.5z M214,62.9v-6.4c0-1.1-0.4-2.1-1.2-2.9
	c-0.8-0.8-1.7-1.2-2.9-1.2c-1.2,0-2.2,0.4-3,1.2c-0.8,0.8-1.1,1.8-1.1,2.9v6.4c0,1.1,0.4,2.1,1.1,2.9c0.8,0.8,1.8,1.2,3,1.2
	c1.1,0,2.1-0.4,2.9-1.2C213.6,65.1,214,64.1,214,62.9z M218.9,62.9c0,1.3-0.2,2.5-0.6,3.6c-0.4,1.1-1,2-1.8,2.8
	c-0.8,0.8-1.7,1.3-2.8,1.8c-1.1,0.4-2.3,0.6-3.7,0.6c-1.4,0-2.6-0.2-3.7-0.6c-1.1-0.4-2-1-2.8-1.8c-0.8-0.8-1.4-1.7-1.8-2.7
	c-0.4-1.1-0.6-2.3-0.6-3.6v-6.4c0-1.3,0.2-2.5,0.6-3.6c0.4-1.1,1-2,1.8-2.7c0.8-0.7,1.7-1.3,2.8-1.8c1.1-0.4,2.3-0.6,3.7-0.6
	c1.4,0,2.6,0.2,3.7,0.6c1.1,0.4,2,1,2.8,1.8c0.8,0.7,1.4,1.7,1.8,2.7c0.4,1.1,0.6,2.3,0.6,3.6V62.9z M195.2,48.3
	C195.2,48.3,195.2,48.3,195.2,48.3L195.2,48.3C195.2,48.3,195.2,48.3,195.2,48.3z M195.2,71.1C195.2,71.1,195.2,71.1,195.2,71.1
	L195.2,71.1C195.2,71.2,195.2,71.1,195.2,71.1z M190.4,71.1C190.4,71.1,190.4,71.1,190.4,71.1C190.4,71.1,190.4,71.1,190.4,71.1
	L190.4,71.1L190.4,71.1z M190.4,48.3L190.4,48.3C190.4,48.3,190.4,48.3,190.4,48.3C190.4,48.3,190.4,48.3,190.4,48.3z M190.4,48.4
	C190.4,48.4,190.4,48.4,190.4,48.4L190.4,48.4C190.4,48.3,190.4,48.3,190.4,48.4l4.8-0.1c0,0,0.1,0,0.1,0l0,0c0,0,0,0,0,0.1V71
	c0,0.1,0,0.1,0,0.1l0,0c0,0,0,0-0.1,0h-4.7c0,0-0.1,0-0.1,0l0,0c0,0,0,0,0-0.1V48.4z M195.8,42c0,0.8-0.3,1.5-0.9,2.1
	c-0.6,0.6-1.3,0.9-2.1,0.9c-0.8,0-1.5-0.3-2.1-0.9c-0.6-0.6-0.9-1.3-0.9-2.2c0-0.9,0.3-1.6,0.9-2.2c0.6-0.6,1.3-0.9,2.1-0.9
	c0.8,0,1.5,0.3,2.1,0.9C195.5,40.4,195.8,41.1,195.8,42z M165.8,66C165.8,66,165.9,66,165.8,66l4.2-2.1c0,0,0.1,0.1,0.1,0.1
	c0.4,0.8,0.9,1.5,1.5,2.2c0.6,0.7,1.4,1,2.5,1h1.5c1,0,1.8-0.2,2.4-0.7c0.6-0.5,0.9-1.2,0.9-1.9c0-0.6-0.2-1.1-0.7-1.5
	c-0.4-0.3-0.9-0.5-1.6-0.6c-0.6-0.1-1.3-0.3-2.2-0.4c-0.8-0.1-2-0.4-2.8-0.6c-2-0.5-3.4-1.3-4.3-2.2c-0.9-0.9-1.3-2.2-1.3-3.9
	c0-1.1,0.2-2.1,0.6-3.1c0.4-0.9,0.9-1.7,1.6-2.4c0.7-0.7,1.5-1.2,2.5-1.6c1-0.4,2.1-0.6,3.3-0.6h1.5c2.2,0,4.1,0.6,5.5,1.7
	c0.3,0.2,0.9,0.8,1.2,1.1c0.3,0.3,0.7,0.8,0.9,1.2c0.2,0.3,0.4,0.7,0.5,1c0.1,0.3,0.2,0.5,0.2,0.6l0,0c0,0,0,0-0.1,0l-4.1,2.1
	c0,0,0,0,0,0c0,0,0,0,0,0c0,0,0-0.1-0.1-0.1l-0.7-1.1c-0.2-0.4-0.5-0.7-0.8-1c-0.3-0.3-0.7-0.6-1.1-0.7c-0.4-0.2-0.9-0.3-1.4-0.3
	h-1.5c-1.9,0-3.2,0.7-3.2,2.4c0,0.6,0.2,1.1,0.7,1.5c0.4,0.3,0.9,0.5,1.6,0.7c0.6,0.1,1.3,0.3,2.2,0.4c0.8,0.1,1.7,0.3,2.7,0.6
	c2,0.6,3.4,1.3,4.3,2.3c0.9,0.9,1.3,2.1,1.3,3.8c0,1.2-0.2,2.2-0.6,3.2c-0.4,1-0.9,1.8-1.6,2.5c-0.7,0.7-1.6,1.2-2.6,1.6
	c-1,0.4-2.2,0.6-3.4,0.6h-1.5c-2.7,0-4.8-0.8-6.2-2.4c-0.3-0.3-0.7-0.8-1-1.1c-0.2-0.3-0.5-0.7-0.6-1C166,66.5,165.9,66.2,165.8,66z
	 M159.4,48.3C159.4,48.3,159.4,48.3,159.4,48.3L159.4,48.3C159.4,48.3,159.4,48.3,159.4,48.3z M154.6,48.3L154.6,48.3
	C154.6,48.3,154.6,48.3,154.6,48.3C154.6,48.3,154.6,48.3,154.6,48.3z M146.5,48.3C146.5,48.3,146.5,48.3,146.5,48.3L146.5,48.3
	L146.5,48.3z M141.6,48.3L141.6,48.3L141.6,48.3C141.6,48.3,141.6,48.3,141.6,48.3L141.6,48.3z M141.6,48.4
	C141.6,48.4,141.6,48.4,141.6,48.4L141.6,48.4C141.6,48.3,141.7,48.3,141.6,48.4l4.8-0.1c0,0,0,0,0.1,0l0,0c0,0,0,0.1,0,0.1v14
	c0,1.2,0.4,2.2,1.1,3c0.8,0.8,1.7,1.2,2.9,1.2c1.2,0,2.1-0.4,2.9-1.2c0.8-0.8,1.2-1.8,1.2-2.9v-14c0-0.1,0-0.1,0-0.1l0,0
	c0,0,0,0,0.1,0h4.7c0,0,0.1,0,0.1,0l0,0c0,0,0,0,0,0.1v25.7c0,2.9-0.8,5.1-2.4,6.8c-1.6,1.6-3.7,2.4-6.6,2.4c-2.2,0-4.1-0.5-5.5-1.6
	c-0.3-0.2-1-0.8-1.2-1.1c-0.3-0.3-0.7-0.9-0.9-1.3c-0.2-0.3-0.4-0.8-0.6-1.1c-0.1-0.3-0.2-0.5-0.2-0.6c0,0,0,0,0.1,0l4.3-2.2l0,0
	l0.3,0.7c0.5,0.8,1,1.5,1.5,1.9c0.6,0.5,1.3,0.7,2.2,0.7c1.1,0,2.1-0.4,2.9-1.2c0.8-0.8,1.2-1.8,1.2-2.9v-3.2c0-0.4-0.2-0.9-0.8-0.9
	c-0.4,0-0.8,0.2-1.4,0.4c-0.4,0.2-1.1,0.3-1.9,0.3c-1.4,0-2.6-0.2-3.7-0.6c-1.1-0.4-2-1-2.8-1.8c-0.8-0.8-1.4-1.7-1.8-2.7
	c-0.4-1.1-0.6-2.3-0.6-3.6V48.4z M135.1,71.2L135.1,71.2L135.1,71.2C135.1,71.2,135.1,71.1,135.1,71.2z M130.2,71.1L130.2,71.1
	C130.2,71.1,130.2,71.2,130.2,71.1L130.2,71.1z M122.1,39.4C122.1,39.4,122.1,39.4,122.1,39.4L122.1,39.4
	C122.1,39.4,122.1,39.4,122.1,39.4z M122.1,71.1C122.1,71.1,122.1,71.1,122.1,71.1L122.1,71.1C122.1,71.2,122.1,71.1,122.1,71.1z
	 M117.3,71.1C117.3,71.1,117.3,71.1,117.3,71.1C117.3,71.1,117.3,71.1,117.3,71.1L117.3,71.1L117.3,71.1z M117.3,39.4L117.3,39.4
	C117.3,39.4,117.3,39.4,117.3,39.4C117.3,39.4,117.3,39.4,117.3,39.4z M117.3,39.5C117.3,39.5,117.3,39.5,117.3,39.5L117.3,39.5
	C117.3,39.4,117.3,39.4,117.3,39.5l4.8-0.1c0,0,0.1,0,0.1,0l0,0c0,0,0,0,0,0.1v8.8c0,0.4,0.1,1,0.8,1c0.4,0,1-0.2,1.6-0.6
	c0.6-0.3,1.4-0.5,2.4-0.5c1.1,0,2.2,0.2,3.1,0.6c1,0.4,1.9,1,2.6,1.8c0.7,0.8,1.3,1.7,1.8,2.8c0.4,1.1,0.6,2.2,0.6,3.5V71
	c0,0,0,0.1,0,0.1l0,0c0,0,0,0-0.1,0h-4.7c0,0,0,0-0.1,0l0,0c0,0,0-0.1,0-0.1V57c0-1.1-0.4-2.1-1.1-2.9c-0.8-0.8-1.7-1.2-2.9-1.2
	c-1.2,0-2.2,0.4-2.9,1.2c-0.8,0.8-1.1,1.8-1.1,2.9V71c0,0.1,0,0.1,0,0.1l0,0c0,0,0,0-0.1,0h-4.7c0,0-0.1,0-0.1,0l0,0c0,0,0,0,0-0.1
	V39.5z M107.3,48.6v-0.5c0-1.1-0.4-2.1-1.2-2.9c-0.8-0.8-1.8-1.2-2.9-1.2h-4.5c-0.6,0-0.9,0.4-0.9,0.9v6.9c0,0.6,0.4,0.9,0.9,0.9
	h4.5c1.1,0,2.1-0.4,2.9-1.2C106.9,50.7,107.3,49.8,107.3,48.6z M97.7,71.2L97.7,71.2L97.7,71.2C97.7,71.2,97.7,71.1,97.7,71.2z
	 M92.9,71.1L92.9,71.1C92.9,71.1,92.9,71.1,92.9,71.1L92.9,71.1L92.9,71.1z M92.9,39.4L92.9,39.4C92.9,39.4,92.9,39.4,92.9,39.4
	C92.9,39.4,92.9,39.4,92.9,39.4z M92.9,71.1C92.9,71.1,92.9,71.1,92.9,71.1l0-31.6c0-0.1,0-0.1,0-0.1l0,0c0,0,0,0,0.1,0h10.3
	c2.8,0,4.9,0.8,6.5,2.5c1.6,1.6,2.4,3.9,2.4,6.7c0,1.3-0.2,2.5-0.6,3.5c-0.4,1.1-1,2-1.8,2.7c-0.8,0.8-1.7,1.4-2.8,1.8
	c-1.1,0.4-2.3,0.6-3.7,0.6h-4.5c-0.6,0-0.9,0.4-0.9,0.9V71c0,0,0,0.1,0,0.1l0,0c0,0,0,0-0.1,0L92.9,71.1
	C92.9,71.1,92.9,71.1,92.9,71.1L92.9,71.1z M78.9,60.8C78.9,60.8,78.9,60.8,78.9,60.8C78.9,60.8,78.9,60.8,78.9,60.8
	C78.9,60.8,78.9,60.8,78.9,60.8z M72.9,56.7c0.6,0,0.9-0.4,0.9-0.9c0-0.4-0.1-0.8-0.3-1.2c-0.2-0.4-0.5-0.8-0.9-1.1
	c-0.4-0.3-0.8-0.6-1.3-0.8c-0.5-0.2-1-0.3-1.5-0.3c-1.1,0-2,0.4-2.8,1.1c-0.8,0.7-1.2,1.5-1.2,2.4c0,0.6,0.4,0.9,0.9,0.9H72.9z
	 M61,56.5c0-0.6,0.2-1.8,0.3-2.3c0.2-0.6,0.7-1.7,1-2.2c0.9-1.4,2-2.4,3.3-3.1c1.3-0.7,2.8-1.1,4.3-1.1c1.5,0,3,0.4,4.3,1.1
	c1.3,0.7,2.4,1.8,3.3,3.1c0.3,0.5,0.8,1.6,1,2.2c0.2,0.6,0.3,1.7,0.3,2.3v4.2c0,0.1,0,0.1,0,0.1l0,0c0,0,0,0-0.1,0h-12
	c-0.6,0-0.9,0.4-0.9,0.9v1.2c0,1.1,0.4,2.1,1.1,2.9c0.8,0.8,1.8,1.2,2.9,1.2c0.8,0,1.5-0.2,2.1-0.7c0.5-0.5,1-1.1,1.5-2
	c0.1-0.2,0.3-0.5,0.4-0.7c0,0,0,0,0.1-0.1c0,0,0,0,0,0l4.4,2.2c0,0,0,0,0.1,0l0,0c0,0.2-0.1,0.5-0.5,1.2c-0.2,0.3-0.5,0.8-0.7,1.1
	c-0.3,0.4-0.7,0.8-1.1,1.3c-1.4,1.5-3.4,2.2-6.1,2.2c-1.4,0-2.6-0.2-3.7-0.6c-1.1-0.4-2-1-2.8-1.8c-0.8-0.8-1.4-1.7-1.8-2.7
	c-0.4-1.1-0.6-2.3-0.6-3.6V56.5z M55.2,60.8C55.2,60.8,55.2,60.8,55.2,60.8C55.2,60.8,55.2,60.8,55.2,60.8
	C55.2,60.8,55.2,60.8,55.2,60.8z M49.3,56.7c0.6,0,0.9-0.4,0.9-0.9c0-0.4-0.1-0.8-0.3-1.2c-0.2-0.4-0.5-0.8-0.9-1.1
	c-0.4-0.3-0.8-0.6-1.3-0.8c-0.5-0.2-1-0.3-1.5-0.3c-1.1,0-2,0.4-2.8,1.1c-0.8,0.7-1.2,1.5-1.2,2.4c0,0.6,0.4,0.9,0.9,0.9H49.3z
	 M37.4,56.5c0-0.6,0.2-1.8,0.3-2.3c0.2-0.6,0.7-1.7,1-2.2c0.9-1.4,2-2.4,3.3-3.1c1.3-0.7,2.8-1.1,4.3-1.1c1.5,0,3,0.4,4.3,1.1
	c1.3,0.7,2.4,1.8,3.3,3.1c0.3,0.5,0.8,1.6,1,2.2c0.2,0.6,0.3,1.7,0.3,2.3v4.2c0,0.1,0,0.1,0,0.1l0,0c0,0,0,0-0.1,0h-12
	c-0.6,0-0.9,0.4-0.9,0.9v1.2c0,1.1,0.4,2.1,1.1,2.9c0.8,0.8,1.8,1.2,2.9,1.2c0.8,0,1.5-0.2,2.1-0.7c0.5-0.5,1-1.1,1.5-2
	c0.1-0.2,0.3-0.5,0.4-0.7c0,0,0,0,0.1-0.1c0,0,0,0,0,0l4.4,2.2c0,0,0,0,0.1,0l0,0c0,0.2-0.1,0.5-0.5,1.2c-0.2,0.3-0.5,0.8-0.7,1.1
	c-0.3,0.4-0.7,0.8-1.1,1.3c-1.4,1.5-3.4,2.2-6.1,2.2c-1.4,0-2.6-0.2-3.7-0.6c-1.1-0.4-2-1-2.8-1.8c-0.8-0.8-1.4-1.7-1.8-2.7
	c-0.4-1.1-0.6-2.3-0.6-3.6V56.5z M26.7,71.1C26.7,71.1,26.7,71.1,26.7,71.1L26.7,71.1C26.7,71.2,26.7,71.1,26.7,71.1z M26.3,48.3
	L26.3,48.3L26.3,48.3C26.3,48.3,26.3,48.3,26.3,48.3L26.3,48.3z M21.8,71.1C21.9,71.1,21.9,71.1,21.8,71.1
	C21.9,71.1,21.9,71.1,21.8,71.1L21.8,71.1L21.8,71.1z M21.8,48.3L21.8,48.3C21.9,48.3,21.8,48.3,21.8,48.3
	C21.9,48.3,21.9,48.3,21.8,48.3z M21.8,48.4C21.8,48.4,21.8,48.4,21.8,48.4L21.8,48.4C21.9,48.3,21.9,48.3,21.8,48.4l4.3-0.1
	c0,0,0,0,0.1,0c0,0,0,0,0,0v0.7c0,0.5,0.3,0.9,0.8,0.9l0.2,0l0.3-0.2l0.1,0c1.3-1,2.4-1.5,3.5-1.5c0.8,0,1.5,0.1,1.9,0.2
	c0.2,0.1,0.4,0.2,0.4,0.2c0,0,0,0,0,0c0,0,0,0,0,0c0,0,0,0,0,0l0,4.9c0,0.1,0,0.1,0,0.1c-0.2,0-0.5-0.1-1-0.4
	c-0.6-0.4-1.3-0.6-2.1-0.6c-1.1,0-2,0.4-2.8,1.2c-0.7,0.8-1.1,1.8-1.1,2.9V71c0,0,0,0.1,0,0.1l0,0c0,0,0,0-0.1,0h-4.7
	c0,0-0.1,0-0.1,0l0,0c0,0,0,0,0-0.1V48.4z M17.8,39.4C17.8,39.4,17.8,39.4,17.8,39.4L17.8,39.4C17.8,39.4,17.8,39.4,17.8,39.4z
	 M17.8,44C17.8,44,17.8,44,17.8,44C17.8,44,17.8,44,17.8,44C17.8,44,17.8,44,17.8,44z M11.3,71.1C11.3,71.1,11.3,71.1,11.3,71.1
	L11.3,71.1C11.3,71.2,11.3,71.1,11.3,71.1z M6.5,71.1C6.5,71.1,6.5,71.1,6.5,71.1C6.5,71.1,6.5,71.2,6.5,71.1L6.5,71.1z M0,44
	C0,44,0,44,0,44C0,44,0,44,0,44L0,44L0,44z M0,39.4L0,39.4C0,39.4,0,39.4,0,39.4C0,39.4,0,39.4,0,39.4z M0,39.5
	C0,39.5,0,39.5,0,39.5L0,39.5C0,39.4,0,39.4,0,39.5l17.7-0.1c0,0,0.1,0,0.1,0l0,0c0,0,0,0,0,0.1v4.4c0,0.1,0,0.1,0,0.1l0,0
	c0,0,0,0-0.1,0h-5.5c-0.6,0-0.9,0.4-0.9,0.9V71c0,0.1,0,0.1,0,0.1l0,0c0,0,0,0-0.1,0H6.5c0,0-0.1,0-0.1,0l0,0c0,0,0,0,0-0.1V45
	c0-0.6-0.3-0.9-0.9-0.9H0.1C0,44,0,44,0,44l0,0c0,0,0,0,0-0.1V39.5z"/>
</svg>
