<?xml version="1.0" encoding="utf-8"?>
<!-- Generator: Adobe Illustrator 19.1.0, SVG Export Plug-In . SVG Version: 6.00 Build 0)  -->
<svg version="1.1" id="Layer_1" xmlns="http://www.w3.org/2000/svg" xmlns:xlink="http://www.w3.org/1999/xlink" x="0px" y="0px"
	 viewBox="0 0 380 46.1159" style="enable-background:new 0 0 380 46.1159;" xml:space="preserve">
<style type="text/css">
	.st0{fill:#546D01;}
</style>
<g>
	<polygon class="st0" points="20.062,18.7708 4.5602,18.7708 4.5602,5.2261 20.595,5.2261 20.595,1.1392 0,1.1392 0,44.7493 
		4.5602,44.7493 4.5602,22.8577 20.062,22.8577 	"/>
	<g>
		<path class="st0" d="M62.985,26.8013c0,10.604-8.3789,18.6044-18.6992,18.6044c-10.3199,0-18.6988-8.0004-18.6988-18.6044
			c0-10.225,8.4737-18.6044,18.6988-18.6044C54.5112,8.1969,62.985,16.5762,62.985,26.8013z M58.5348,26.8013
			c0-7.8584-5.8697-14.4383-14.2491-14.4383c-8.3789,0-14.2491,6.5799-14.2491,14.4383c0,8.1425,6.5327,14.4383,14.2491,14.4383
			S58.5348,34.9437,58.5348,26.8013z"/>
	</g>
	<g>
		<path class="st0" d="M91.1051,44.6482h-5.3968L75.1991,29.5469H73.353v15.1013h-4.4497V8.9543h5.3964
			c3.1718,0,6.5804,0.0477,9.4204,1.6569c2.9825,1.7518,4.6866,5.1127,4.6866,8.5214c0,5.1123-3.4082,9.3727-8.5681,9.9881
			L91.1051,44.6482z M73.353,25.8546h1.42c4.5446,0,9.4681-0.8523,9.4681-6.5327c0-5.5861-5.302-6.3907-9.7045-6.3907H73.353
			V25.8546z"/>
	</g>
	<g>
		<path class="st0" d="M95.6333,8.9543h19.1721v4.0712H100.083v9.9886h14.2962v4.0712H100.083V40.577h14.7224v4.0712H95.6333V8.9543
			z"/>
	</g>
	<g>
		<path class="st0" d="M136.3234,15.724c-1.3256-2.2251-3.0297-3.361-5.7281-3.361c-2.84,0-5.9646,1.941-5.9646,5.0651
			c0,2.7933,2.7456,4.2605,4.9707,5.1127l2.5564,0.9943c5.0651,1.9882,8.8522,4.781,8.8522,10.746
			c0,6.4851-5.0179,11.1245-11.4086,11.1245c-5.7753,0-10.2727-4.2605-11.0301-9.9886l4.4974-0.9467
			c-0.0477,3.9292,3.0769,6.7692,6.9112,6.7692c3.8348,0,6.5804-3.2189,6.5804-6.9584c0-3.8348-3.0774-5.4917-6.1543-6.7697
			l-2.4615-1.0415c-4.0712-1.7518-7.7635-4.0712-7.7635-9.0419c0-5.7753,5.1123-9.2312,10.5091-9.2312
			c3.9764,0,7.243,1.941,9.184,5.3968L136.3234,15.724z"/>
	</g>
	<g>
		<path class="st0" d="M156.9463,44.6482h-4.4497V13.0255h-8.4737V8.9543h21.3972v4.0712h-8.4737V44.6482z"/>
	</g>
	<path class="st0" d="M199.6044,45.5037c7.8433,0,13.7583-5.7625,13.7583-13.4039c0-7.7069-5.4329-10.8786-10.7466-12.9643
		l-3.1936-1.2424c-1.6135-0.6175-6.5311-2.5008-6.5311-6.8562c0-4.2199,4.1295-6.8317,7.9548-6.8317
		c3.2553,0,5.5336,1.2438,7.3251,4.0185l3.5907-2.1542C209.3888,2.1508,205.5732,0,200.9656,0
		c-6.1253,0-12.6348,3.8684-12.6348,11.037c0,5.9727,4.5177,8.74,9.4001,10.8404l3.0744,1.3005
		c3.8674,1.6066,7.9968,3.7549,7.9968,8.9219c0,5.1582-3.8322,9.1986-8.7244,9.1986c-2.5747,0-4.9381-0.9578-6.6562-2.6969
		c-1.4883-1.5064-2.3527-3.4939-2.47-5.6505l-4.5685,0.9622C187.4908,40.7616,192.8671,45.5037,199.6044,45.5037z"/>
	<g>
		<path class="st0" d="M246.7348,15.7711c-2.5564-2.2723-6.0594-3.503-9.4204-3.503c-8.0004,0-14.107,6.6748-14.107,14.5808
			c0,7.8107,6.0594,14.4855,14.0121,14.4855c3.503,0,6.8645-1.3256,9.5153-3.6923v5.2543
			c-2.7456,1.6097-6.2486,2.5092-9.3732,2.5092c-10.1778,0-18.6044-8.0948-18.6044-18.4151
			c0-10.5563,8.4737-18.7936,18.9833-18.7936c3.1241,0,6.2958,0.7574,8.9942,2.4143V15.7711z"/>
	</g>
	<g>
		<path class="st0" d="M256.8862,44.6482h-4.4497V8.9543h4.4497V44.6482z"/>
	</g>
	<g>
		<path class="st0" d="M264.8095,8.9543h19.1721v4.0712h-14.7224v9.9886h14.2962v4.0712h-14.2962V40.577h14.7224v4.0712h-19.1721
			V8.9543z"/>
	</g>
	<g>
		<path class="st0" d="M289.9962,7.2502l26.794,28.072V8.9543h4.4497v37.1616l-26.794-28.0725v26.6048h-4.4497V7.2502z"/>
	</g>
	<g>
		<path class="st0" d="M355.159,15.7711c-2.5564-2.2723-6.0594-3.503-9.4204-3.503c-8.0004,0-14.107,6.6748-14.107,14.5808
			c0,7.8107,6.0594,14.4855,14.0121,14.4855c3.5031,0,6.8645-1.3256,9.5153-3.6923v5.2543
			c-2.7456,1.6097-6.2486,2.5092-9.3732,2.5092c-10.1778,0-18.6044-8.0948-18.6044-18.4151
			c0-10.5563,8.4737-18.7936,18.9833-18.7936c3.1241,0,6.2958,0.7574,8.9942,2.4143V15.7711z"/>
	</g>
	<g>
		<path class="st0" d="M360.8279,8.9543H380v4.0712h-14.7224v9.9886h14.2962v4.0712h-14.2962V40.577H380v4.0712h-19.1721V8.9543z"/>
	</g>
</g>
</svg>
